{"title":"JAG.S01.Season.1.DVDRip.XviD-TOPAZ","uid":5150860,"size":8064419874,"categoryP":"video","categoryS":"tv_shows","magnet":"?xt=urn:btih:3293ebf40d4f093c08a9a2238e27d929c672759d&amp;dn=JAG.S01.Season.1.DVDRip.XviD-TOPAZ&amp;tr=udp%3A%2F%2Ftracker.openbittorrent.com%3A80&amp;tr=udp%3A%2F%2Fopen.demonii.com%3A1337&amp;tr=udp%3A%2F%2Ftracker.coppersurfer.tk%3A6969&amp;tr=udp%3A%2F%2Fexodus.desync.com%3A6969","seeders":5,"leechers":3,"uploader":"TillamookColdstream","files":22,"time":1257548332,"description":"Season 1: http://thepiratebay.se/torrent/5150860\nSeason 2: http://thepiratebay.se/torrent/5282717\nSeason 3: http://thepiratebay.se/torrent/5282718\nSeason 4: http://thepiratebay.se/torrent/5290267\nSeason 5: \nSeason 6:\nSeason 7:\nSeason 8:\nSeason 9:\nSeason 10:\n\n\nGeneral\nComplete name                    : JAG.S01E01-02.DVDRip.XviD-TOPAZ.avi\nFormat                           : AVI\nFormat/Info                      : Audio Video Interleave\nFile size                        : 700 MiB\nDuration                         : 1h 32mn\nOverall bit rate                 : 1 055 Kbps\nWriting application              : VirtualDubMod 1.5.10.2 (build 2540/release)\nWriting library                  : VirtualDubMod build 2540/release\n\nVideo\nID                               : 0\nFormat                           : MPEG-4 Visual\nFormat profile                   : AdvancedSimple@L5\nFormat settings, BVOP            : Yes\nFormat settings, QPel            : No\nFormat settings, GMC             : No warppoints\nFormat settings, Matrix          : Default (MPEG)\nMuxing mode                      : Packed bitstream\nCodec ID                         : XVID\nCodec ID/Hint                    : XviD\nDuration                         : 1h 32mn\nBit rate                         : 856 Kbps\nWidth                            : 576 pixels\nHeight                           : 432 pixels\nDisplay aspect ratio             : 4:3\nFrame rate                       : 23.976 fps\nResolution                       : 24 bits\nColorimetry                      : 4:2:0\nScan type                        : Progressive\nBits/(Pixel*Frame)               : 0.143\nStream size                      : 568 MiB (81%)\nWriting library                  : XviD 1.1.0 (UTC 2005-11-22)\n\nAudio\nID                               : 1\nFormat                           : AC-3\nFormat/Info                      : Audio Coding 3\nFormat profile                   : Dolby Digital\nCodec ID                         : 2000\nDuration                         : 1h 32mn\nBit rate mode                    : Constant\nBit rate                         : 192 Kbps\nChannel(s)                       : 2 channels\nChannel positions                : L R\nSampling rate                    : 48.0 KHz\nStream size                      : 127 MiB (18%)\nAlignment                        : Split accross interleaves\nInterleave, duration             : 83 ms (2.00 video frames)\nInterleave, preload duration     : 500 ms\n\n","torrent":{"xt":"urn:btih:3293ebf40d4f093c08a9a2238e27d929c672759d","amp;dn":"JAG.S01.Season.1.DVDRip.XviD-TOPAZ","amp;tr":["udp%3A%2F%2Ftracker.openbittorrent.com%3A80","udp%3A%2F%2Fopen.demonii.com%3A1337","udp%3A%2F%2Ftracker.coppersurfer.tk%3A6969","udp%3A%2F%2Fexodus.desync.com%3A6969"],"infoHash":"3293ebf40d4f093c08a9a2238e27d929c672759d","infoHashBuffer":{"type":"Buffer","data":[50,147,235,244,13,79,9,60,8,169,162,35,142,39,217,41,198,114,117,157]},"announce":[],"urlList":[]}}